<?xml version="1.0"?>
<svg xmlns="http://www.w3.org/2000/svg" xmlns:xlink="http://www.w3.org/1999/xlink" xmlns:svgjs="http://svgjs.com/svgjs" version="1.1" width="512" height="512" x="0" y="0" viewBox="0 0 512 512" style="enable-background:new 0 0 512 512" xml:space="preserve" class=""><g><g xmlns="http://www.w3.org/2000/svg"><path d="m472 452c0 11.028-8.972 20-20 20h-392c-11.028 0-20-8.972-20-20v-392c0-11.028 8.972-20 20-20h176v-40h-176c-33.084 0-60 26.916-60 60v392c0 33.084 26.916 60 60 60h392c33.084 0 60-26.916 60-60v-176h-40z" fill="#000000" data-original="#000000" style="" class=""/><path d="m312 0v40h131.716l-321.858 321.858 28.284 28.284 321.858-321.858v131.716h40v-200z" fill="#000000" data-original="#000000" style="" class=""/></g></g></svg>
